<svg id="svg" version="1.1" width="400" height="400" xmlns="http://www.w3.org/2000/svg" xmlns:xlink="http://www.w3.org/1999/xlink" style="display: block;"><g id="svgg"><path id="path0" d="M252.659 17.515 C 265.877 33.358,271.106 55.347,266.345 75.070 C 264.627 82.187,263.705 82.958,262.533 78.259 C 261.588 74.474,257.591 69.441,252.737 65.925 C 247.751 62.313,247.264 62.640,250.209 67.624 C 252.308 71.175,252.478 72.520,252.238 83.654 C 252.094 90.338,252.407 96.941,252.934 98.326 C 256.188 106.885,243.674 98.791,239.374 89.556 C 238.079 86.775,236.977 82.700,236.926 80.500 L 236.831 76.500 234.806 80.915 C 231.947 87.147,231.322 95.849,233.367 100.958 C 235.719 106.838,235.566 115.627,233.088 116.953 C 227.154 120.128,225.518 100.006,230.641 86.850 C 233.232 80.195,234.427 75.344,234.787 70.023 L 235.292 62.545 230.396 66.799 C 227.703 69.138,221.207 74.144,215.960 77.922 C 200.395 89.131,198.244 92.154,197.757 103.500 L 197.500 109.500 195.616 105.707 C 193.210 100.865,186.960 95.744,180.212 93.084 C 173.261 90.344,173.300 90.309,177.508 95.445 C 181.841 100.732,184.734 107.889,185.634 115.544 L 186.290 121.124 182.895 119.742 C 179.528 118.372,179.495 118.296,178.866 110.430 C 178.368 104.205,177.452 100.878,174.602 94.954 C 168.858 83.014,168.012 74.390,171.515 63.498 C 172.429 60.658,164.202 69.699,162.043 73.908 L 160.285 77.334 159.562 73.479 C 158.821 69.528,154.710 60.845,151.050 55.500 L 148.996 52.500 149.601 57.010 C 150.426 63.161,148.478 69.685,144.704 73.408 L 141.569 76.500 140.217 69.500 C 137.722 56.590,140.869 37.435,147.157 27.250 C 151.192 20.713,147.815 24.221,143.060 31.505 C 104.068 91.235,167.312 166.715,233.384 139.303 C 283.873 118.356,294.749 47.665,252.430 15.515 L 248.500 12.529 252.659 17.515 M157.325 91.731 C 156.792 101.988,156.554 102.417,153.506 98.604 C 151.020 95.493,151.684 91.183,155.561 85.266 C 157.746 81.932,157.820 82.203,157.325 91.731 M96.638 122.059 C 74.493 125.448,63.721 141.797,63.732 172.000 C 63.753 227.617,105.800 294.217,181.752 358.937 C 196.288 371.323,195.834 368.945,185.821 380.259 C 181.322 385.341,176.935 390.367,176.071 391.427 C 175.207 392.486,179.900 388.806,186.500 383.248 C 196.686 374.670,198.754 373.321,200.178 374.321 C 201.101 374.970,206.501 379.055,212.178 383.401 L 222.500 391.301 215.479 383.901 C 211.617 379.830,207.170 375.063,205.596 373.307 L 202.735 370.114 224.516 348.807 C 286.949 287.731,319.614 235.941,327.526 185.481 C 340.052 105.600,289.354 102.890,199.500 178.637 C 180.466 194.683,180.040 195.347,195.000 185.654 C 256.212 145.994,291.657 137.098,298.069 159.786 C 307.990 194.893,269.114 278.135,206.783 355.250 C 197.310 366.970,199.320 367.047,188.749 354.552 C 105.930 256.653,70.833 166.811,108.491 149.109 C 124.906 141.393,160.814 144.597,196.414 156.953 C 204.395 159.722,204.359 159.035,196.271 154.230 C 156.425 130.558,119.341 118.584,96.638 122.059 " stroke="none" fill="#84b5f1" fill-rule="evenodd"></path></g></svg>