<svg id="svg" version="1.1" width="400" height="400" xmlns="http://www.w3.org/2000/svg" xmlns:xlink="http://www.w3.org/1999/xlink" style="display: block;"><g id="svgg"><path id="path0" d="M137.047 1.576 C 128.174 5.425,112.836 9.851,106.534 10.380 C 100.686 10.871,98.680 11.562,94.034 14.687 C 90.990 16.734,88.376 18.478,88.225 18.563 C 88.074 18.648,87.466 21.462,86.875 24.818 C 85.860 30.581,82.021 34.785,75.348 37.440 C 75.009 37.575,71.130 83.868,71.070 88.500 C 71.034 91.250,70.516 98.000,69.918 103.500 C 69.321 109.000,68.425 119.800,67.928 127.500 C 67.430 135.200,66.751 143.359,66.418 145.632 C 65.501 151.890,65.048 151.368,115.774 202.431 C 157.773 244.709,168.560 254.873,174.000 257.291 C 174.825 257.658,177.144 258.980,179.154 260.229 C 181.163 261.478,187.688 265.376,193.654 268.890 C 199.619 272.405,205.175 275.842,206.000 276.529 C 206.825 277.215,209.750 278.986,212.500 280.464 C 215.250 281.943,219.525 284.433,222.000 285.998 C 224.475 287.563,227.063 288.878,227.750 288.921 C 228.438 288.965,229.000 289.399,229.000 289.886 C 229.000 290.373,230.463 291.517,232.250 292.426 C 234.037 293.336,237.300 295.195,239.500 296.558 C 241.700 297.920,244.469 299.449,245.653 299.956 C 246.837 300.462,248.101 301.354,248.462 301.938 C 249.594 303.770,251.576 303.112,255.097 299.735 C 256.968 297.939,264.350 291.327,271.500 285.040 C 284.607 273.516,289.002 269.578,293.864 265.000 C 295.325 263.625,300.115 259.369,304.510 255.543 C 308.904 251.716,313.223 247.891,314.107 247.043 C 317.149 244.122,330.004 232.785,332.500 230.821 C 335.443 228.506,335.568 227.711,333.336 225.479 C 331.512 223.655,330.829 224.495,342.988 213.598 L 347.342 209.697 344.421 204.427 C 342.814 201.529,339.184 195.185,336.352 190.329 L 331.205 181.500 329.670 166.332 C 328.763 157.368,327.494 149.923,326.568 148.131 C 325.706 146.464,325.000 144.462,325.000 143.683 C 325.000 142.904,324.144 140.069,323.097 137.383 C 322.050 134.698,319.078 125.879,316.492 117.787 L 311.790 103.074 302.645 91.787 C 287.085 72.582,252.449 39.000,248.201 39.000 C 241.666 39.000,233.417 47.214,231.632 55.500 C 231.277 57.150,230.409 60.623,229.704 63.217 L 228.422 67.934 196.461 35.899 C 178.883 18.280,162.830 2.995,160.790 1.932 C 156.119 -0.500,142.310 -0.707,137.047 1.576 M164.000 21.819 C 164.000 22.269,165.320 23.281,166.934 24.069 C 169.832 25.483,187.968 42.392,217.714 71.414 C 229.443 82.858,233.000 86.915,233.000 88.850 C 233.000 95.079,241.683 98.403,245.961 93.811 C 252.227 87.086,244.063 77.685,235.799 82.108 C 233.925 83.111,233.786 82.988,234.331 80.817 C 234.662 79.498,235.413 74.181,236.000 69.001 C 237.971 51.603,242.985 50.998,259.500 66.164 C 281.697 86.548,282.457 87.325,297.231 104.757 C 300.684 108.830,302.505 112.432,305.322 120.757 C 307.321 126.666,310.798 136.900,313.048 143.500 C 316.412 153.368,317.243 157.336,317.725 165.834 C 318.100 172.459,318.793 176.651,319.655 177.513 C 320.395 178.252,321.000 179.115,321.000 179.431 C 321.000 179.746,323.672 184.157,326.937 189.232 L 332.874 198.459 329.187 201.685 C 327.159 203.460,321.675 208.131,317.000 212.066 C 312.325 216.000,307.370 220.183,305.989 221.360 C 304.608 222.537,298.645 227.533,292.739 232.463 C 286.833 237.392,282.000 241.780,282.000 242.213 C 282.000 242.646,281.363 243.000,280.583 243.000 C 279.804 243.000,279.017 243.337,278.833 243.750 C 278.650 244.162,275.800 246.715,272.500 249.422 C 269.200 252.129,264.570 256.177,262.211 258.418 C 259.511 260.983,257.659 262.089,257.211 261.404 C 256.820 260.806,249.081 256.089,240.013 250.923 L 223.526 241.530 227.431 240.895 C 236.892 239.357,236.056 226.000,226.500 226.000 C 220.499 226.000,217.039 232.468,220.040 238.075 C 220.906 239.693,220.110 239.487,215.290 236.847 C 206.564 232.066,204.812 231.079,201.000 228.801 C 199.075 227.651,195.025 225.345,192.000 223.676 C 188.975 222.008,185.291 219.913,183.812 219.020 C 181.589 217.678,163.968 201.300,144.520 182.500 C 142.244 180.300,132.759 171.323,123.441 162.552 C 90.994 132.007,91.021 132.042,94.386 125.558 C 95.261 123.871,95.807 119.330,95.869 113.232 C 95.922 107.921,96.842 95.009,97.913 84.538 C 98.983 74.067,100.152 60.775,100.510 55.000 C 101.642 36.716,101.111 37.945,109.816 33.460 C 113.315 31.658,117.588 30.470,122.316 29.987 C 126.267 29.583,131.975 28.296,135.000 27.127 C 138.025 25.958,141.175 24.979,142.000 24.952 C 142.825 24.926,145.075 24.074,147.000 23.060 C 150.602 21.163,164.000 20.184,164.000 21.819 M237.591 102.173 C 233.256 108.362,236.849 114.306,244.625 113.809 C 250.394 113.440,252.032 110.752,250.433 104.278 C 249.225 99.389,240.539 97.965,237.591 102.173 M239.000 122.000 C 236.367 124.633,236.386 129.964,239.039 132.811 C 243.650 137.761,252.000 134.218,252.000 127.311 C 252.000 122.911,249.014 120.000,244.500 120.000 C 242.333 120.000,240.238 120.762,239.000 122.000 M185.000 237.845 C 187.475 239.090,192.650 242.077,196.500 244.482 C 203.801 249.043,207.467 251.183,212.485 253.815 L 215.470 255.381 212.254 256.214 C 210.407 256.693,208.489 258.098,207.744 259.518 L 206.449 261.990 202.975 259.649 C 201.064 258.361,197.475 256.171,195.000 254.782 C 171.165 241.407,171.929 242.058,125.788 195.866 C 79.259 149.286,79.885 150.035,81.334 142.707 L 82.293 137.858 131.397 186.719 C 165.326 220.481,181.891 236.280,185.000 237.845 M237.750 150.080 C 235.255 151.533,235.310 160.066,237.829 162.345 C 242.897 166.932,250.000 163.182,250.000 155.919 C 250.000 149.637,243.681 146.626,237.750 150.080 M234.117 175.883 C 229.359 180.641,232.990 189.000,239.814 189.000 C 245.658 189.000,249.758 179.425,245.667 175.333 C 243.829 173.495,236.139 173.861,234.117 175.883 M226.696 205.783 C 221.913 211.069,225.874 218.232,233.341 217.799 C 239.168 217.461,241.547 213.318,239.414 207.222 C 238.159 203.637,229.523 202.660,226.696 205.783 M138.975 259.565 C 136.229 266.788,138.404 271.000,144.880 271.000 C 152.292 271.000,155.571 265.116,151.443 259.223 C 149.005 255.742,140.338 255.980,138.975 259.565 M248.472 275.351 C 251.466 276.500,251.393 279.068,248.280 282.182 L 245.277 285.185 234.388 278.566 C 228.400 274.926,222.825 271.551,222.000 271.067 C 221.175 270.582,220.709 269.582,220.965 268.843 C 221.221 268.104,221.446 265.682,221.465 263.459 L 221.500 259.419 234.199 267.083 C 241.184 271.298,247.607 275.019,248.472 275.351 M141.000 276.000 C 134.401 282.599,144.056 292.851,151.777 287.443 C 155.258 285.005,155.020 276.338,151.435 274.975 C 147.355 273.424,143.164 273.836,141.000 276.000 M198.223 283.557 C 194.742 285.995,194.980 294.662,198.565 296.025 C 205.400 298.623,211.000 295.763,211.000 289.674 C 211.000 283.330,203.603 279.788,198.223 283.557 M145.117 296.883 C 140.359 301.641,143.990 310.000,150.814 310.000 C 156.658 310.000,160.758 300.425,156.667 296.333 C 154.829 294.495,147.139 294.861,145.117 296.883 M187.655 302.829 C 183.423 307.505,186.328 315.899,192.203 315.968 C 197.913 316.035,200.000 314.143,200.000 308.896 C 200.000 301.755,192.128 297.886,187.655 302.829 M152.250 317.220 C 148.717 318.925,148.935 328.194,152.547 329.839 C 159.388 332.957,164.000 330.404,164.000 323.500 C 164.000 316.640,158.998 313.966,152.250 317.220 M175.039 324.189 C 170.399 329.169,173.737 337.000,180.500 337.000 C 185.014 337.000,188.000 334.089,188.000 329.689 C 188.000 322.782,179.650 319.239,175.039 324.189 M161.565 340.578 C 158.489 343.654,157.789 346.153,158.472 351.621 L 159.144 357.000 155.476 357.000 C 143.615 357.000,142.096 370.630,153.832 371.758 L 159.000 372.254 159.032 384.377 C 159.070 398.759,159.639 400.000,166.200 400.000 C 172.205 400.000,173.000 398.081,173.000 383.580 L 173.000 372.254 178.035 371.771 C 190.014 370.620,188.199 357.000,176.066 357.000 L 173.000 357.000 173.000 350.189 C 173.000 340.471,166.845 335.298,161.565 340.578 " stroke="none" fill="#000000" fill-rule="evenodd"></path></g></svg>