<svg id="svg" version="1.1" width="400" height="743" xmlns="http://www.w3.org/2000/svg" xmlns:xlink="http://www.w3.org/1999/xlink" style="display: block;"><g id="svgg"><path id="path0" d="M198.000 8.000 C 198.000 11.905,197.917 12.000,194.500 12.000 C 191.667 12.000,191.000 12.381,191.000 14.000 C 191.000 15.611,191.667 16.000,194.428 16.000 L 197.856 16.000 198.185 31.250 C 198.427 42.418,198.178 46.923,197.258 48.079 C 195.584 50.180,195.668 52.480,197.474 53.978 C 199.306 55.499,196.931 61.000,194.441 61.000 C 183.788 61.000,177.166 76.683,186.989 78.648 C 192.052 79.660,191.276 85.112,184.674 94.919 C 180.114 101.692,179.098 104.100,177.606 111.665 C 176.648 116.524,175.661 121.513,175.413 122.750 C 175.127 124.174,174.235 125.000,172.981 125.000 C 171.300 125.000,171.000 125.681,171.000 129.500 C 171.000 133.333,171.296 134.000,173.000 134.000 C 174.950 134.000,175.000 134.667,175.000 160.500 C 175.000 186.333,174.950 187.000,173.000 187.000 C 171.051 187.000,171.000 187.667,171.000 213.000 L 171.000 239.000 162.500 239.000 L 154.000 239.000 154.000 328.000 L 154.000 417.000 113.500 417.000 L 73.000 417.000 73.000 481.500 L 73.000 546.000 41.500 546.000 L 10.000 546.000 10.000 641.000 L 10.000 736.000 19.000 736.000 L 28.000 736.000 28.000 700.682 C 28.000 661.660,28.378 658.601,34.045 651.749 C 46.097 637.177,68.303 639.583,77.325 656.437 C 79.431 660.371,79.510 661.702,79.805 698.250 L 80.110 736.000 90.510 736.000 L 100.910 736.000 101.205 698.250 C 101.490 661.831,101.576 660.359,103.649 656.487 C 113.943 637.269,139.888 637.276,149.500 656.500 L 152.500 662.500 152.796 699.250 L 153.092 736.000 163.501 736.000 L 173.910 736.000 174.205 698.250 C 174.491 661.605,174.564 660.380,176.691 656.405 C 186.978 637.182,213.014 637.515,223.157 657.000 C 225.474 661.449,225.503 661.921,225.806 698.750 L 226.112 736.000 236.556 736.000 L 247.000 736.000 247.012 701.750 C 247.026 659.979,247.588 656.797,256.380 648.715 C 266.132 639.750,281.525 639.976,290.874 649.222 C 298.816 657.075,298.465 654.923,298.795 697.750 L 299.089 736.000 310.045 736.000 L 321.000 736.000 321.000 700.443 C 321.000 660.386,321.273 658.244,327.238 651.466 C 339.734 637.271,360.426 639.508,369.500 656.036 L 372.500 661.500 372.806 698.750 L 373.112 736.000 381.556 736.000 L 390.000 736.000 390.000 641.000 L 390.000 546.000 358.500 546.000 L 327.000 546.000 327.000 481.500 L 327.000 417.000 287.000 417.000 L 247.000 417.000 247.000 328.000 L 247.000 239.000 238.000 239.000 L 229.000 239.000 229.000 213.000 C 229.000 190.556,228.795 187.000,227.500 187.000 C 226.204 187.000,226.000 183.389,226.000 160.500 C 226.000 137.611,226.204 134.000,227.500 134.000 C 228.611 134.000,229.000 132.833,229.000 129.500 C 229.000 125.741,228.686 125.000,227.094 125.000 C 225.548 125.000,225.058 124.008,224.503 119.750 C 222.981 108.074,220.806 101.940,215.604 94.651 C 210.011 86.814,208.662 79.000,212.903 79.000 C 215.845 79.000,218.000 75.696,218.000 71.185 C 218.000 66.687,214.099 62.998,207.693 61.438 C 203.850 60.502,201.232 56.460,202.821 53.915 C 204.262 51.607,204.354 48.337,203.000 47.500 C 202.403 47.131,202.000 40.656,202.000 31.441 L 202.000 16.000 205.500 16.000 C 208.333 16.000,209.000 15.619,209.000 14.000 C 209.000 12.381,208.333 12.000,205.500 12.000 C 202.083 12.000,202.000 11.905,202.000 8.000 C 202.000 4.667,201.667 4.000,200.000 4.000 C 198.333 4.000,198.000 4.667,198.000 8.000 M203.500 145.567 C 207.807 147.611,207.970 148.453,207.986 168.750 L 208.000 186.000 200.000 186.000 L 192.000 186.000 192.000 168.223 C 192.000 148.077,192.893 145.327,199.849 144.063 C 200.041 144.029,201.684 144.705,203.500 145.567 M206.033 216.517 C 211.844 219.522,213.558 226.744,209.873 232.705 C 206.239 238.585,198.389 239.881,193.143 235.467 C 182.167 226.231,193.265 209.914,206.033 216.517 M207.524 295.424 C 213.175 299.127,213.473 300.530,213.832 325.203 L 214.164 348.000 200.582 348.000 L 187.000 348.000 187.000 325.368 C 187.000 303.953,187.116 302.549,189.151 299.256 C 192.892 293.203,201.420 291.424,207.524 295.424 M207.102 478.270 C 213.765 482.721,213.997 484.029,213.998 517.250 L 214.000 547.000 200.500 547.000 L 187.000 547.000 187.002 517.250 C 187.003 481.420,188.777 476.000,200.500 476.000 C 202.262 476.000,205.233 477.021,207.102 478.270 " stroke="none" fill="#f48942" fill-rule="evenodd"></path></g></svg>