<svg id="svg" version="1.1" width="400" height="445" xmlns="http://www.w3.org/2000/svg" xmlns:xlink="http://www.w3.org/1999/xlink" style="display: block;"><g id="svgg"><path id="path0" d="M178.000 4.618 C 170.025 7.052,160.575 9.723,157.000 10.553 C 153.425 11.384,142.850 14.251,133.500 16.924 C 103.307 25.558,86.634 30.223,80.500 31.754 C 64.714 35.693,43.002 42.449,43.015 43.417 C 43.045 45.664,46.047 52.831,50.968 62.404 C 56.685 73.525,56.863 71.457,49.498 79.500 C 47.988 81.150,45.733 84.075,44.489 86.000 C 43.245 87.925,40.826 90.822,39.113 92.437 C 31.741 99.392,25.578 99.000,142.368 99.000 L 245.573 99.000 249.287 94.026 C 251.329 91.290,253.000 88.686,253.000 88.238 C 253.000 87.338,242.489 80.272,237.000 77.482 C 234.024 75.970,228.667 72.398,225.674 69.929 C 222.958 67.689,228.374 51.468,234.833 42.500 C 238.399 37.550,242.888 31.250,244.810 28.500 C 246.732 25.750,249.556 22.056,251.086 20.291 C 252.616 18.525,254.661 15.409,255.631 13.366 L 257.394 9.650 252.006 4.825 L 246.619 0.000 219.560 0.096 L 192.500 0.192 178.000 4.618 M52.108 113.685 C 32.502 137.471,28.104 188.426,43.668 211.473 C 44.401 212.557,45.000 214.188,45.000 215.097 C 45.000 217.201,54.893 231.014,60.906 237.308 C 74.995 252.053,96.054 263.637,115.000 267.064 L 124.500 268.783 72.500 268.913 C 13.730 269.061,16.641 268.689,8.109 277.147 C -0.510 285.690,0.000 280.006,0.000 367.583 L 0.000 445.000 105.399 445.000 L 210.798 445.000 217.649 438.865 C 221.417 435.491,227.616 429.978,231.425 426.615 C 235.233 423.252,240.408 418.623,242.925 416.330 C 250.585 409.348,267.803 393.963,279.000 384.094 C 282.025 381.428,287.425 376.573,291.000 373.305 C 302.840 362.483,333.202 335.573,338.645 331.078 C 344.117 326.559,345.060 324.714,342.621 323.300 C 341.863 322.860,335.072 315.300,327.530 306.500 C 319.988 297.700,313.262 290.050,312.584 289.500 C 311.905 288.950,310.490 287.150,309.439 285.500 L 307.528 282.500 311.299 285.750 C 313.373 287.538,315.581 289.000,316.206 289.000 C 316.832 289.000,320.303 290.195,323.922 291.655 C 335.751 296.429,357.779 295.850,366.500 290.535 C 367.600 289.865,369.749 289.009,371.275 288.633 C 372.801 288.257,375.951 286.124,378.275 283.892 C 380.599 281.661,383.458 279.182,384.628 278.383 C 391.491 273.697,399.006 254.954,398.988 242.568 C 398.904 185.420,318.969 168.328,293.217 219.952 L 289.500 227.404 289.500 242.457 C 289.500 256.603,289.655 257.822,292.066 262.691 C 294.260 267.123,294.368 267.732,292.816 266.901 C 291.817 266.367,291.000 265.531,291.000 265.044 C 291.000 264.556,288.188 261.014,284.750 257.172 C 281.313 253.329,276.739 248.119,274.587 245.593 C 270.290 240.548,268.618 239.977,267.000 243.000 C 266.411 244.100,265.347 245.000,264.635 245.000 C 263.923 245.000,260.606 247.475,257.263 250.500 C 253.920 253.525,250.878 256.000,250.503 256.000 C 250.128 256.000,247.049 258.473,243.660 261.496 C 240.272 264.518,237.007 266.993,236.405 266.996 C 235.803 266.998,234.453 267.957,233.405 269.127 C 232.357 270.298,226.888 274.863,221.250 279.273 C 215.613 283.682,211.000 287.675,211.000 288.145 C 211.000 288.615,210.502 289.000,209.894 289.000 C 209.286 289.000,207.062 290.367,204.952 292.038 L 201.117 295.076 196.308 291.553 C 193.664 289.616,189.925 286.711,188.000 285.099 C 186.075 283.486,180.623 279.204,175.885 275.583 L 167.270 269.000 159.385 268.861 L 151.500 268.722 158.000 267.786 C 216.984 259.298,257.106 194.140,236.993 139.500 C 235.778 136.200,234.126 131.700,233.322 129.500 C 232.518 127.300,229.536 122.013,226.695 117.750 L 221.531 110.000 138.338 110.000 L 55.146 110.000 52.108 113.685 " stroke="none" fill="#f48942" fill-rule="evenodd"></path></g></svg>